# Blender 4.0.2
# www.blender.org
mtllib Turela.mtl
o Turela
v 0.000000 0.789644 -1.000000
v 0.000000 1.189644 -1.000000
v 0.587785 0.789644 -0.809017
v 0.587785 1.189644 -0.809017
v 0.951057 0.789644 -0.309017
v 0.951057 1.189644 -0.309017
v 0.951057 0.789644 0.309017
v 0.951057 1.189644 0.309017
v 0.587785 0.789644 0.809017
v 0.587785 1.189644 0.809017
v 0.000000 0.789644 1.000000
v 0.000000 1.189644 1.000000
v -0.587785 0.789644 0.809017
v -0.587785 1.189644 0.809017
v -0.951057 0.789644 0.309017
v -0.951057 1.189644 0.309017
v -0.951057 0.789644 -0.309017
v -0.951057 1.189644 -0.309017
v -0.587785 0.789644 -0.809017
v -0.587785 1.189644 -0.809017
v 0.489367 1.189644 -0.673556
v 0.000000 1.189644 -0.832561
v -0.489367 1.189644 -0.673556
v -0.791813 1.189644 -0.257275
v -0.791813 1.189644 0.257276
v -0.489367 1.189644 0.673556
v 0.000000 1.189644 0.832561
v 0.489367 1.189644 0.673556
v 0.791813 1.189644 0.257276
v 0.791813 1.189644 -0.257275
v 0.317905 1.481042 -0.437558
v 0.489367 1.203610 -0.673556
v 0.370889 1.467464 -0.510485
v 0.418688 1.428058 -0.576274
v 0.456621 1.366681 -0.628484
v 0.480975 1.289341 -0.662005
v 0.000000 1.203610 -0.832561
v -0.000000 1.481042 -0.540851
v 0.000000 1.289341 -0.818284
v 0.000000 1.366681 -0.776849
v -0.000000 1.428058 -0.712314
v -0.000000 1.467464 -0.630995
v 0.514380 1.481042 -0.167132
v 0.791813 1.203610 -0.257275
v 0.600112 1.467464 -0.194988
v 0.677451 1.428058 -0.220117
v 0.738828 1.366681 -0.240060
v 0.778234 1.289341 -0.252863
v -0.489367 1.203610 -0.673556
v -0.317905 1.481042 -0.437558
v -0.480975 1.289341 -0.662005
v -0.456621 1.366681 -0.628484
v -0.418688 1.428058 -0.576274
v -0.370889 1.467464 -0.510485
v -0.791813 1.203610 -0.257275
v -0.514380 1.481042 -0.167132
v -0.778234 1.289341 -0.252863
v -0.738828 1.366681 -0.240060
v -0.677451 1.428058 -0.220117
v -0.600112 1.467464 -0.194988
v -0.791813 1.203610 0.257276
v -0.514380 1.481042 0.167132
v -0.778234 1.289341 0.252864
v -0.738828 1.366681 0.240060
v -0.677451 1.428058 0.220117
v -0.600112 1.467464 0.194988
v -0.489367 1.203610 0.673556
v -0.317905 1.481042 0.437558
v -0.480975 1.289341 0.662006
v -0.456621 1.366681 0.628485
v -0.418688 1.428058 0.576274
v -0.370889 1.467464 0.510486
v 0.000000 1.203610 0.832561
v 0.000000 1.481042 0.540852
v 0.000000 1.289341 0.818284
v 0.000000 1.366681 0.776850
v 0.000000 1.428058 0.712314
v 0.000000 1.467464 0.630995
v 0.489367 1.203610 0.673556
v 0.317905 1.481042 0.437558
v 0.480975 1.289341 0.662006
v 0.456621 1.366681 0.628485
v 0.418688 1.428058 0.576274
v 0.370889 1.467464 0.510486
v 0.791813 1.203610 0.257276
v 0.514380 1.481042 0.167132
v 0.778234 1.289341 0.252864
v 0.738828 1.366681 0.240060
v 0.677451 1.428058 0.220117
v 0.600112 1.467464 0.194988
v 0.951057 1.189644 0.173080
v 0.951057 0.789644 0.172663
v -0.060797 0.789644 0.172663
v 0.509839 1.481042 0.173383
v 0.302048 1.481042 0.173383
v 0.533609 1.477997 0.173380
v 0.791813 1.203610 0.173094
v 0.778234 1.289341 0.173183
v 0.738828 1.366681 0.173264
v 0.677451 1.428058 0.173328
v 0.600112 1.467464 0.173369
v 0.791813 1.189644 0.173080
v 0.517700 1.480517 -0.168211
v 0.513597 1.481042 -0.168210
v 0.951057 0.789644 -0.168931
v 0.951057 1.189644 -0.168514
v -0.060797 0.789644 -0.168931
v 0.302048 1.481042 -0.168210
v 0.791813 1.203610 -0.168499
v 0.778234 1.289341 -0.168410
v 0.738828 1.366681 -0.168329
v 0.677451 1.428058 -0.168265
v 0.600112 1.467464 -0.168224
v 0.791813 1.189644 -0.168514
v 0.791813 1.203610 -0.168499
v 0.778234 1.289341 -0.168410
v 0.738828 1.366681 -0.168329
v 0.677451 1.428058 -0.168265
v 0.600112 1.467464 -0.168224
v 0.517700 1.480517 -0.168211
v 0.513597 1.481042 -0.168210
v 0.302048 1.481042 -0.168210
v -0.060797 0.789644 -0.168931
v 0.951057 0.789644 -0.168931
v 0.951057 1.189644 -0.168514
v 0.791813 1.189644 -0.168514
vn 0.3090 -0.0000 -0.9511
vn 0.8090 -0.0000 -0.5878
vn 0.8090 -0.0000 0.5878
vn 0.3090 -0.0000 0.9511
vn -0.3090 -0.0000 0.9511
vn -0.8090 -0.0000 0.5878
vn -1.0000 -0.0000 -0.0000
vn -0.8090 -0.0000 -0.5878
vn -0.3090 -0.0000 -0.9511
vn 0.3052 0.1564 -0.9393
vn 0.2753 0.4540 -0.8474
vn 0.2185 0.7071 -0.6725
vn 0.1403 0.8910 -0.4318
vn 0.0483 0.9877 -0.1488
vn 0.7991 0.1564 -0.5805
vn 0.7208 0.4540 -0.5237
vn 0.5721 0.7071 -0.4156
vn 0.3673 0.8910 -0.2668
vn -0.3052 0.1564 -0.9393
vn -0.2753 0.4540 -0.8474
vn -0.2185 0.7071 -0.6725
vn -0.1403 0.8910 -0.4318
vn -0.0483 0.9877 -0.1488
vn -0.7991 0.1564 -0.5805
vn -0.7208 0.4540 -0.5237
vn -0.5721 0.7071 -0.4156
vn -0.3673 0.8910 -0.2668
vn -0.1266 0.9877 -0.0919
vn -0.9877 0.1564 -0.0000
vn -0.8910 0.4540 -0.0000
vn -0.7071 0.7071 -0.0000
vn -0.4540 0.8910 -0.0000
vn -0.1564 0.9877 -0.0000
vn -0.7991 0.1564 0.5805
vn -0.7208 0.4540 0.5237
vn -0.5721 0.7071 0.4156
vn -0.3673 0.8910 0.2668
vn -0.1266 0.9877 0.0919
vn -0.3052 0.1564 0.9393
vn -0.2753 0.4540 0.8474
vn -0.2185 0.7071 0.6725
vn -0.1403 0.8910 0.4318
vn -0.0483 0.9877 0.1488
vn 0.3052 0.1564 0.9393
vn 0.2753 0.4540 0.8474
vn 0.2185 0.7071 0.6725
vn 0.1403 0.8910 0.4318
vn 0.0483 0.9877 0.1488
vn 0.7991 0.1564 0.5805
vn 0.7208 0.4540 0.5237
vn 0.5721 0.7071 0.4156
vn 0.3673 0.8910 0.2668
vn -0.0000 1.0000 -0.0000
vn 1.0000 -0.0000 -0.0000
vn -0.0000 -1.0000 -0.0000
vn 0.1266 0.9877 0.0919
vn 0.9877 0.1564 -0.0000
vn 0.8910 0.4540 -0.0000
vn 0.7071 0.7071 -0.0000
vn 0.4540 0.8910 -0.0000
vn 0.1564 0.9877 -0.0000
vn -0.0000 0.0010 -1.0000
vn 0.1265 0.9877 -0.0919
vn 0.1266 0.9877 -0.0919
vn -0.0000 -0.0010 1.0000
vt 1.000000 0.500000
vt 1.000000 1.000000
vt 0.900000 1.000000
vt 0.900000 0.500000
vt 0.800000 1.000000
vt 0.800000 0.500000
vt 0.700000 0.500000
vt 0.700000 1.000000
vt 0.600000 1.000000
vt 0.600000 0.500000
vt 0.500000 1.000000
vt 0.500000 0.500000
vt 0.400000 1.000000
vt 0.400000 0.500000
vt 0.300000 1.000000
vt 0.300000 0.500000
vt 0.200000 1.000000
vt 0.200000 0.500000
vt 0.100000 1.000000
vt 0.100000 0.500000
vt -0.000000 1.000000
vt -0.000000 0.500000
vt 0.367448 0.411653
vt 0.250000 0.449815
vt 0.250000 0.449487
vt 0.367256 0.411389
vt 0.250000 0.448538
vt 0.366698 0.410620
vt 0.250000 0.420955
vt 0.350485 0.388306
vt 0.250000 0.401439
vt 0.339013 0.372516
vt 0.250000 0.379804
vt 0.326297 0.355014
vt 0.440035 0.311746
vt 0.367448 0.411653
vt 0.439724 0.311645
vt 0.438821 0.311352
vt 0.412588 0.302828
vt 0.394027 0.296797
vt 0.250000 0.449815
vt 0.132552 0.411653
vt 0.132744 0.411389
vt 0.133302 0.410621
vt 0.149515 0.388306
vt 0.160987 0.372516
vt 0.173703 0.355014
vt 0.132552 0.411653
vt 0.059965 0.311746
vt 0.060276 0.311645
vt 0.061179 0.311352
vt 0.087412 0.302828
vt 0.105973 0.296797
vt 0.126549 0.290112
vt 0.059965 0.311746
vt 0.059965 0.188254
vt 0.060276 0.188355
vt 0.061179 0.188648
vt 0.087412 0.197172
vt 0.105973 0.203203
vt 0.126549 0.209888
vt 0.059965 0.188254
vt 0.132552 0.088347
vt 0.132744 0.088611
vt 0.133302 0.089379
vt 0.149515 0.111694
vt 0.160987 0.127484
vt 0.173703 0.144986
vt 0.250000 0.050185
vt 0.250000 0.050513
vt 0.250000 0.051462
vt 0.250000 0.079045
vt 0.250000 0.098561
vt 0.250000 0.120196
vt 0.250000 0.050185
vt 0.367448 0.088347
vt 0.367256 0.088611
vt 0.366698 0.089380
vt 0.350485 0.111694
vt 0.339013 0.127484
vt 0.326297 0.144986
vt 0.440035 0.188254
vt 0.439724 0.188355
vt 0.438821 0.188648
vt 0.412588 0.197172
vt 0.394027 0.203203
vt 0.391068 0.444164
vt 0.250000 0.490000
vt 0.250000 0.449815
vt 0.108932 0.444164
vt 0.021746 0.324164
vt 0.021746 0.175836
vt 0.108932 0.055836
vt 0.250000 0.010000
vt 0.391068 0.055836
vt 0.478254 0.175836
vt 0.478254 0.324164
vt 0.721995 1.000000
vt 0.722063 0.500000
vt 0.978254 0.175836
vt 0.891068 0.055836
vt 0.750000 0.010000
vt 0.608932 0.055836
vt 0.521746 0.175836
vt 0.735409 0.208561
vt 0.978253 0.208561
vt 0.372361 0.208388
vt 0.322492 0.208388
vt 0.378066 0.208389
vt 0.373451 0.209888
vt 0.439724 0.207780
vt 0.440035 0.208457
vt 0.438821 0.205719
vt 0.439724 0.207780
vt 0.412588 0.208401
vt 0.438821 0.205719
vt 0.394027 0.208391
vt 0.412588 0.208401
vt 0.378066 0.208389
vt 0.582515 0.949599
vt 0.577269 0.937900
vt 0.570659 0.927901
vt 0.563332 0.920580
vt 0.562139 0.919664
vt 0.562139 0.899758
vt 0.527952 0.873518
vt 0.527952 1.000000
vt 0.587043 1.000000
vt 0.587043 0.974026
vt 0.586783 0.970855
vt 0.585883 0.961851
vt 0.440035 0.208461
vt 0.478254 0.208461
vt 0.440035 0.208457
vt 0.373451 0.290112
vt 0.374248 0.290371
vt 0.373263 0.290370
vt 0.777334 0.500000
vt 0.777266 1.000000
vt 0.735409 0.290543
vt 0.978253 0.290543
vt 0.521746 0.324164
vt 0.608932 0.444164
vt 0.750000 0.490000
vt 0.891068 0.444164
vt 0.978254 0.324164
vt 0.322492 0.290370
vt 0.440035 0.290440
vt 0.440035 0.311746
vt 0.439724 0.291056
vt 0.438821 0.293020
vt 0.412588 0.290384
vt 0.412588 0.290384
vt 0.394027 0.290374
vt 0.563332 0.329420
vt 0.570659 0.322099
vt 0.577269 0.312100
vt 0.582515 0.300401
vt 0.585883 0.288149
vt 0.586998 0.276991
vt 0.587043 0.276444
vt 0.587043 0.250000
vt 0.527952 0.250000
vt 0.527952 0.376482
vt 0.562139 0.350242
vt 0.562139 0.330336
vt 0.478254 0.290443
vt 0.440035 0.290443
vt 0.440035 0.290443
vt 0.440035 0.290440
s 0
f 1/1/1 2/2/1 4/3/1 3/4/1
f 3/4/2 4/3/2 6/5/2 5/6/2
f 7/7/3 8/8/3 10/9/3 9/10/3
f 9/10/4 10/9/4 12/11/4 11/12/4
f 11/12/5 12/11/5 14/13/5 13/14/5
f 13/14/6 14/13/6 16/15/6 15/16/6
f 15/16/7 16/15/7 18/17/7 17/18/7
f 17/18/8 18/17/8 20/19/8 19/20/8
f 19/20/9 20/19/9 2/21/9 1/22/9
f 32/23/10 37/24/10 39/25/10 36/26/10
f 36/26/11 39/25/11 40/27/11 35/28/11
f 35/28/12 40/27/12 41/29/12 34/30/12
f 34/30/13 41/29/13 42/31/13 33/32/13
f 33/32/14 42/31/14 38/33/14 31/34/14
f 44/35/15 32/36/15 36/26/15 48/37/15
f 48/37/16 36/26/16 35/28/16 47/38/16
f 47/38/17 35/28/17 34/30/17 46/39/17
f 46/39/18 34/30/18 33/32/18 45/40/18
f 37/41/19 49/42/19 51/43/19 39/25/19
f 39/25/20 51/43/20 52/44/20 40/27/20
f 40/27/21 52/44/21 53/45/21 41/29/21
f 41/29/22 53/45/22 54/46/22 42/31/22
f 42/31/23 54/46/23 50/47/23 38/33/23
f 49/48/24 55/49/24 57/50/24 51/43/24
f 51/43/25 57/50/25 58/51/25 52/44/25
f 52/44/26 58/51/26 59/52/26 53/45/26
f 53/45/27 59/52/27 60/53/27 54/46/27
f 54/46/28 60/53/28 56/54/28 50/47/28
f 55/55/29 61/56/29 63/57/29 57/50/29
f 57/50/30 63/57/30 64/58/30 58/51/30
f 58/51/31 64/58/31 65/59/31 59/52/31
f 59/52/32 65/59/32 66/60/32 60/53/32
f 60/53/33 66/60/33 62/61/33 56/54/33
f 61/62/34 67/63/34 69/64/34 63/57/34
f 63/57/35 69/64/35 70/65/35 64/58/35
f 64/58/36 70/65/36 71/66/36 65/59/36
f 65/59/37 71/66/37 72/67/37 66/60/37
f 66/60/38 72/67/38 68/68/38 62/61/38
f 67/63/39 73/69/39 75/70/39 69/64/39
f 69/64/40 75/70/40 76/71/40 70/65/40
f 70/65/41 76/71/41 77/72/41 71/66/41
f 71/66/42 77/72/42 78/73/42 72/67/42
f 72/67/43 78/73/43 74/74/43 68/68/43
f 73/75/44 79/76/44 81/77/44 75/70/44
f 75/70/45 81/77/45 82/78/45 76/71/45
f 76/71/46 82/78/46 83/79/46 77/72/46
f 77/72/47 83/79/47 84/80/47 78/73/47
f 78/73/48 84/80/48 80/81/48 74/74/48
f 79/76/49 85/82/49 87/83/49 81/77/49
f 81/77/50 87/83/50 88/84/50 82/78/50
f 82/78/51 88/84/51 89/85/51 83/79/51
f 83/79/52 89/85/52 90/86/52 84/80/52
f 4/87/53 2/88/53 22/89/53 21/23/53
f 2/88/53 20/90/53 23/48/53 22/89/53
f 20/90/53 18/91/53 24/55/53 23/48/53
f 18/91/53 16/92/53 25/62/53 24/55/53
f 16/92/53 14/93/53 26/63/53 25/62/53
f 14/93/53 12/94/53 27/75/53 26/63/53
f 12/94/53 10/95/53 28/76/53 27/75/53
f 10/95/53 8/96/53 29/82/53 28/76/53
f 6/97/53 4/87/53 21/23/53 30/35/53
f 30/35/2 21/23/2 32/36/2 44/35/2
f 23/48/8 24/55/8 55/49/8 49/48/8
f 27/75/4 28/76/4 79/76/4 73/75/4
f 24/55/7 25/62/7 61/56/7 55/55/7
f 28/76/3 29/82/3 85/82/3 79/76/3
f 25/62/6 26/63/6 67/63/6 61/62/6
f 22/89/9 23/48/9 49/42/9 37/41/9
f 26/63/5 27/75/5 73/69/5 67/63/5
f 21/23/1 22/89/1 37/24/1 32/23/1
f 91/98/54 8/8/54 7/7/54 92/99/54
f 7/100/55 9/101/55 11/102/55 13/103/55 15/104/55 93/105/55 92/106/55
f 80/81/53 94/107/53 95/108/53
f 96/109/56 86/110/56 94/107/56
f 80/81/56 84/80/56 90/86/56 96/109/56 94/107/56
f 98/111/57 87/83/57 85/82/57 97/112/57
f 99/113/58 88/84/58 87/83/58 98/114/58
f 100/115/59 89/85/59 88/84/59 99/116/59
f 101/117/60 90/86/60 89/85/60 100/118/60
f 96/119/61 90/86/61 101/117/61
f 100/120/62 99/121/62 98/122/62 97/123/62 102/124/62 91/125/62 92/126/62 93/127/62 95/128/62 94/129/62 96/130/62 101/131/62
f 102/132/53 29/82/53 8/96/53 91/133/53
f 97/134/54 85/82/54 29/82/54 102/132/54
f 43/135/63 103/136/63 104/137/63
f 103/136/64 45/40/64 33/32/64 31/34/64 104/137/64
f 105/138/54 5/6/54 6/5/54 106/139/54
f 106/139/54 91/98/54 92/99/54 105/138/54
f 92/106/55 93/105/55 107/140/55 105/141/55
f 17/142/55 19/143/55 1/144/55 3/145/55 5/146/55 105/141/55 107/140/55 93/105/55 15/104/55
f 95/108/53 94/107/53 86/110/53 43/135/53 104/137/53 108/147/53 31/34/53 38/33/53 50/47/53 56/54/53 62/61/53 68/68/53 74/74/53 80/81/53
f 31/34/53 108/147/53 104/137/53
f 109/148/57 44/149/57 48/37/57 110/150/57
f 110/150/57 98/111/57 97/112/57 109/148/57
f 111/151/58 99/113/58 98/114/58 110/150/58
f 110/150/58 48/37/58 47/38/58 111/151/58
f 111/151/59 47/38/59 46/39/59 112/152/59
f 112/152/59 100/115/59 99/116/59 111/151/59
f 112/153/60 46/39/60 45/40/60 113/154/60
f 113/154/60 101/117/60 100/118/60 112/153/60
f 113/154/61 45/40/61 103/136/61
f 103/136/61 43/135/61 86/110/61 96/119/61 101/117/61 113/154/61
f 115/155/65 116/156/65 117/157/65 118/158/65 119/159/65 120/160/65 121/161/65 122/162/65 123/163/65 124/164/65 125/165/65 126/166/65
f 106/167/53 6/97/53 30/35/53 114/168/53
f 114/168/53 102/132/53 91/133/53 106/167/53
f 114/169/54 30/35/54 44/149/54 109/170/54
f 109/170/54 97/134/54 102/132/54 114/169/54
